<?xml version="1.0" encoding="us-ascii" standalone="no"?><svg xmlns="http://www.w3.org/2000/svg" xmlns:xlink="http://www.w3.org/1999/xlink" contentStyleType="text/css" height="238px" preserveAspectRatio="none" style="width:1309px;height:238px;background:#FFFFFF;" version="1.1" viewBox="0 0 1309 238" width="1309px" zoomAndPan="magnify"><defs/><g><rect fill="#2B2B2B" height="21.6094" style="stroke:#2B2B2B;stroke-width:1.5;" width="104" x="10" y="74.2422"/><text fill="#8872B0" font-family="sans-serif" font-size="14" font-weight="bold" lengthAdjust="spacing" textLength="72" x="15" y="90.7754">bookstore</text><text fill="#000000" font-family="sans-serif" font-size="14" lengthAdjust="spacing" textLength="12" x="97" y="90.7754">&#160;&#160;&#160;</text><line style="stroke:#000000;stroke-width:1.0;" x1="92" x2="92" y1="74.2422" y2="95.8516"/><rect fill="none" height="21.6094" style="stroke:#000000;stroke-width:1.5;" width="104" x="10" y="74.2422"/><rect fill="#2B2B2B" height="43.2188" style="stroke:#2B2B2B;stroke-width:1.5;" width="194" x="151" y="63.6328"/><text fill="#8872B0" font-family="sans-serif" font-size="14" font-weight="bold" lengthAdjust="spacing" textLength="27" x="156" y="80.166">title</text><text fill="#688153" font-family="sans-serif" font-size="14" lengthAdjust="spacing" textLength="135" x="205" y="80.166">my "super" bookstore</text><line style="stroke:#000000;stroke-width:1.0;" x1="200" x2="200" y1="63.6328" y2="85.2422"/><line style="stroke:#000000;stroke-width:1.0;" x1="151" x2="345" y1="85.2422" y2="85.2422"/><text fill="#8872B0" font-family="sans-serif" font-size="14" font-weight="bold" lengthAdjust="spacing" textLength="39" x="156" y="101.7754">order</text><text fill="#000000" font-family="sans-serif" font-size="14" lengthAdjust="spacing" textLength="12" x="205" y="101.7754">&#160;&#160;&#160;</text><line style="stroke:#000000;stroke-width:1.0;" x1="200" x2="200" y1="85.2422" y2="106.8516"/><rect fill="none" height="43.2188" style="stroke:#000000;stroke-width:1.5;" width="194" x="151" y="63.6328"/><rect fill="#2B2B2B" height="43.2188" style="stroke:#2B2B2B;stroke-width:1.5;" width="158" x="382" y="74.6328"/><text fill="#8872B0" font-family="sans-serif" font-size="14" font-weight="bold" lengthAdjust="spacing" textLength="44" x="387" y="91.166">bookA</text><text fill="#688153" font-family="sans-serif" font-size="14" lengthAdjust="spacing" textLength="54" x="481" y="91.166">My Book</text><line style="stroke:#000000;stroke-width:1.0;" x1="476" x2="476" y1="74.6328" y2="96.2422"/><line style="stroke:#000000;stroke-width:1.0;" x1="382" x2="540" y1="96.2422" y2="96.2422"/><text fill="#8872B0" font-family="sans-serif" font-size="14" font-weight="bold" lengthAdjust="spacing" textLength="84" x="387" y="112.7754">more Books</text><text fill="#000000" font-family="sans-serif" font-size="14" lengthAdjust="spacing" textLength="12" x="481" y="112.7754">&#160;&#160;&#160;</text><line style="stroke:#000000;stroke-width:1.0;" x1="476" x2="476" y1="96.2422" y2="117.8516"/><rect fill="none" height="43.2188" style="stroke:#000000;stroke-width:1.5;" width="158" x="382" y="74.6328"/><rect fill="#2B2B2B" height="21.6094" style="stroke:#2B2B2B;stroke-width:1.5;" width="134" x="577" y="96.2422"/><text fill="#8872B0" font-family="sans-serif" font-size="14" font-weight="bold" lengthAdjust="spacing" textLength="102" x="582" y="112.7754">SpecifiedBook</text><text fill="#000000" font-family="sans-serif" font-size="14" lengthAdjust="spacing" textLength="12" x="694" y="112.7754">&#160;&#160;&#160;</text><line style="stroke:#000000;stroke-width:1.0;" x1="689" x2="689" y1="96.2422" y2="117.8516"/><rect fill="none" height="21.6094" style="stroke:#000000;stroke-width:1.5;" width="134" x="577" y="96.2422"/><rect fill="#2B2B2B" height="194.4844" style="stroke:#2B2B2B;stroke-width:1.5;" width="208" x="748" y="10"/><text fill="#8872B0" font-family="sans-serif" font-size="14" font-weight="bold" lengthAdjust="spacing" textLength="14" x="753" y="26.5332">ID</text><text fill="#688153" font-family="sans-serif" font-size="14" lengthAdjust="spacing" textLength="38" x="856" y="26.5332">LOTR</text><line style="stroke:#000000;stroke-width:1.0;" x1="851" x2="851" y1="10" y2="31.6094"/><line style="stroke:#000000;stroke-width:1.0;" x1="748" x2="956" y1="31.6094" y2="31.6094"/><text fill="#8872B0" font-family="sans-serif" font-size="14" font-weight="bold" lengthAdjust="spacing" textLength="43" x="753" y="48.1426">pages</text><text fill="#6798C1" font-family="sans-serif" font-size="14" lengthAdjust="spacing" textLength="32" x="856" y="48.1426">4303</text><line style="stroke:#000000;stroke-width:1.0;" x1="851" x2="851" y1="31.6094" y2="53.2188"/><line style="stroke:#000000;stroke-width:1.0;" x1="748" x2="956" y1="53.2188" y2="53.2188"/><text fill="#8872B0" font-family="sans-serif" font-size="14" font-weight="bold" lengthAdjust="spacing" textLength="62" x="753" y="69.752">chapters</text><text fill="#6798C1" font-family="sans-serif" font-size="14" lengthAdjust="spacing" textLength="29" x="856" y="69.752">-666</text><line style="stroke:#000000;stroke-width:1.0;" x1="851" x2="851" y1="53.2188" y2="74.8281"/><line style="stroke:#000000;stroke-width:1.0;" x1="748" x2="956" y1="74.8281" y2="74.8281"/><text fill="#8872B0" font-family="sans-serif" font-size="14" font-weight="bold" lengthAdjust="spacing" textLength="93" x="753" y="91.3613">someNumber</text><text fill="#6798C1" font-family="sans-serif" font-size="14" lengthAdjust="spacing" textLength="65" x="856" y="91.3613">-7868.890</text><line style="stroke:#000000;stroke-width:1.0;" x1="851" x2="851" y1="74.8281" y2="96.4375"/><line style="stroke:#000000;stroke-width:1.0;" x1="748" x2="956" y1="96.4375" y2="96.4375"/><text fill="#8872B0" font-family="sans-serif" font-size="14" font-weight="bold" lengthAdjust="spacing" textLength="91" x="753" y="112.9707">moreNumber</text><text fill="#6798C1" font-family="sans-serif" font-size="14" lengthAdjust="spacing" textLength="68" x="856" y="112.9707">213.43234</text><line style="stroke:#000000;stroke-width:1.0;" x1="851" x2="851" y1="96.4375" y2="118.0469"/><line style="stroke:#000000;stroke-width:1.0;" x1="748" x2="956" y1="118.0469" y2="118.0469"/><text fill="#8872B0" font-family="sans-serif" font-size="14" font-weight="bold" lengthAdjust="spacing" textLength="66" x="753" y="134.5801">NullValue</text><text fill="#6798C1" font-family="sans-serif" font-size="14" lengthAdjust="spacing" textLength="22" x="856" y="134.5801">null</text><line style="stroke:#000000;stroke-width:1.0;" x1="851" x2="851" y1="118.0469" y2="139.6563"/><line style="stroke:#000000;stroke-width:1.0;" x1="748" x2="956" y1="139.6563" y2="139.6563"/><text fill="#8872B0" font-family="sans-serif" font-size="14" font-weight="bold" lengthAdjust="spacing" textLength="24" x="753" y="156.1895">ISO</text><text fill="#688153" font-family="sans-serif" font-size="14" lengthAdjust="spacing" textLength="95" x="856" y="156.1895">ISO 2694:1243</text><line style="stroke:#000000;stroke-width:1.0;" x1="851" x2="851" y1="139.6563" y2="161.2656"/><line style="stroke:#000000;stroke-width:1.0;" x1="748" x2="956" y1="161.2656" y2="161.2656"/><text fill="#8872B0" font-family="sans-serif" font-size="14" font-weight="bold" lengthAdjust="spacing" textLength="68" x="753" y="177.7988">Definition</text><text fill="#000000" font-family="sans-serif" font-size="14" lengthAdjust="spacing" textLength="12" x="856" y="177.7988">&#160;&#160;&#160;</text><line style="stroke:#000000;stroke-width:1.0;" x1="851" x2="851" y1="161.2656" y2="182.875"/><line style="stroke:#000000;stroke-width:1.0;" x1="748" x2="956" y1="182.875" y2="182.875"/><text fill="#8872B0" font-family="sans-serif" font-size="14" font-weight="bold" lengthAdjust="spacing" textLength="78" x="753" y="199.4082">Good Book</text><text fill="#CB742F" font-family="sans-serif" font-size="14" lengthAdjust="spacing" textLength="25" x="856" y="199.4082">true</text><line style="stroke:#000000;stroke-width:1.0;" x1="851" x2="851" y1="182.875" y2="204.4844"/><rect fill="none" height="194.4844" style="stroke:#000000;stroke-width:1.5;" width="208" x="748" y="10"/><rect fill="#2B2B2B" height="43.2188" style="stroke:#2B2B2B;stroke-width:1.5;" width="148" x="993" y="150.6328"/><text fill="#8872B0" font-family="sans-serif" font-size="14" font-weight="bold" lengthAdjust="spacing" textLength="39" x="998" y="167.166">11def</text><text fill="#688153" font-family="sans-serif" font-size="14" lengthAdjust="spacing" textLength="71" x="1065" y="167.166">A defintion.</text><line style="stroke:#000000;stroke-width:1.0;" x1="1060" x2="1060" y1="150.6328" y2="172.2422"/><line style="stroke:#000000;stroke-width:1.0;" x1="993" x2="1141" y1="172.2422" y2="172.2422"/><text fill="#8872B0" font-family="sans-serif" font-size="14" font-weight="bold" lengthAdjust="spacing" textLength="57" x="998" y="188.7754">Formats</text><text fill="#000000" font-family="sans-serif" font-size="14" lengthAdjust="spacing" textLength="12" x="1065" y="188.7754">&#160;&#160;&#160;</text><line style="stroke:#000000;stroke-width:1.0;" x1="1060" x2="1060" y1="172.2422" y2="193.8516"/><rect fill="none" height="43.2188" style="stroke:#000000;stroke-width:1.5;" width="148" x="993" y="150.6328"/><rect fill="#2B2B2B" height="86.4375" style="stroke:#2B2B2B;stroke-width:1.5;" width="45" x="1178" y="140.0234"/><text fill="#688153" font-family="sans-serif" font-size="14" lengthAdjust="spacing" textLength="35" x="1183" y="156.5566">JSON</text><line style="stroke:#000000;stroke-width:1.0;" x1="1178" x2="1223" y1="161.6328" y2="161.6328"/><text fill="#000000" font-family="sans-serif" font-size="14" lengthAdjust="spacing" textLength="12" x="1183" y="178.166">&#160;&#160;&#160;</text><line style="stroke:#000000;stroke-width:1.0;" x1="1178" x2="1223" y1="183.2422" y2="183.2422"/><text fill="#000000" font-family="sans-serif" font-size="14" lengthAdjust="spacing" textLength="12" x="1183" y="199.7754">&#160;&#160;&#160;</text><line style="stroke:#000000;stroke-width:1.0;" x1="1178" x2="1223" y1="204.8516" y2="204.8516"/><text fill="#688153" font-family="sans-serif" font-size="14" lengthAdjust="spacing" textLength="27" x="1183" y="221.3848">XML</text><rect fill="none" height="86.4375" style="stroke:#000000;stroke-width:1.5;" width="45" x="1178" y="140.0234"/><rect fill="#2B2B2B" height="21.6094" style="stroke:#2B2B2B;stroke-width:1.5;" width="36" x="1260.5" y="152.2422"/><text fill="#8872B0" font-family="sans-serif" font-size="14" font-weight="bold" lengthAdjust="spacing" textLength="8" x="1265.5" y="168.7754">a</text><text fill="#688153" font-family="sans-serif" font-size="14" lengthAdjust="spacing" textLength="8" x="1283.5" y="168.7754">a</text><line style="stroke:#000000;stroke-width:1.0;" x1="1278.5" x2="1278.5" y1="152.2422" y2="173.8516"/><rect fill="none" height="21.6094" style="stroke:#000000;stroke-width:1.5;" width="36" x="1260.5" y="152.2422"/><rect fill="#2B2B2B" height="21.6094" style="stroke:#2B2B2B;stroke-width:1.5;" width="37" x="1260" y="192.2422"/><text fill="#8872B0" font-family="sans-serif" font-size="14" font-weight="bold" lengthAdjust="spacing" textLength="9" x="1265" y="208.7754">b</text><text fill="#688153" font-family="sans-serif" font-size="14" lengthAdjust="spacing" textLength="8" x="1284" y="208.7754">b</text><line style="stroke:#000000;stroke-width:1.0;" x1="1279" x2="1279" y1="192.2422" y2="213.8516"/><rect fill="none" height="21.6094" style="stroke:#000000;stroke-width:1.5;" width="37" x="1260" y="192.2422"/><path d="M1211,172.2422 L1224,172.2422 C1233.5563,172.2422 1243.936,170.8538 1253.0182,169.1677 " fill="none" style="stroke:#000000;stroke-width:1.0;stroke-dasharray:3.0,3.0;"/><path d="M1253.6306,172.2053 L1255.2964,168.7084 L1252.4058,166.1301 L1260.6121,167.6367 L1253.6306,172.2053 " fill="#000000" style="stroke:#000000;stroke-width:1.0;"/><ellipse cx="1211" cy="172.2422" fill="#000000" rx="3" ry="3" style="stroke:#000000;stroke-width:1.0;"/><path d="M1211,194.2422 L1224,194.2422 C1233.4093,194.2422 1243.6168,195.5882 1252.5981,197.2391 " fill="none" style="stroke:#000000;stroke-width:1.0;stroke-dasharray:3.0,3.0;"/><path d="M1251.9968,200.2495 L1254.8559,197.69 L1253.1993,194.2286 L1260.1241,198.7422 L1251.9968,200.2495 " fill="#000000" style="stroke:#000000;stroke-width:1.0;"/><ellipse cx="1211" cy="194.2422" fill="#000000" rx="3" ry="3" style="stroke:#000000;stroke-width:1.0;"/><path d="M1129,183.2422 L1142,183.2422 C1151.2678,183.2422 1161.3687,183.2422 1170.5056,183.2422 " fill="none" style="stroke:#000000;stroke-width:1.0;stroke-dasharray:3.0,3.0;"/><path d="M1170.5056,186.3366 L1172.8264,183.2422 L1170.5056,180.1477 L1178.2417,183.2422 L1170.5056,186.3366 " fill="#000000" style="stroke:#000000;stroke-width:1.0;"/><ellipse cx="1129" cy="183.2422" fill="#000000" rx="3" ry="3" style="stroke:#000000;stroke-width:1.0;"/><path d="M944,172.2422 L957,172.2422 C966.3003,172.2422 976.0448,172.2422 985.7243,172.2422 " fill="none" style="stroke:#000000;stroke-width:1.0;stroke-dasharray:3.0,3.0;"/><path d="M985.7243,175.3378 L988.046,172.2422 L985.7243,169.1466 L993.4633,172.2422 L985.7243,175.3378 " fill="#000000" style="stroke:#000000;stroke-width:1.0;"/><ellipse cx="944" cy="172.2422" fill="#000000" rx="3" ry="3" style="stroke:#000000;stroke-width:1.0;"/><path d="M699,107.2422 L712,107.2422 C721.2684,107.2422 730.8832,107.2422 740.5337,107.2422 " fill="none" style="stroke:#000000;stroke-width:1.0;stroke-dasharray:3.0,3.0;"/><path d="M740.5337,110.3387 L742.856,107.2422 L740.5337,104.1457 L748.2749,107.2422 L740.5337,110.3387 " fill="#000000" style="stroke:#000000;stroke-width:1.0;"/><ellipse cx="699" cy="107.2422" fill="#000000" rx="3" ry="3" style="stroke:#000000;stroke-width:1.0;"/><path d="M528,107.2422 L541,107.2422 C550.2674,107.2422 560.0061,107.2422 569.6408,107.2422 " fill="none" style="stroke:#000000;stroke-width:1.0;stroke-dasharray:3.0,3.0;"/><path d="M569.6408,110.3196 L571.9489,107.2422 L569.6408,104.1648 L577.3344,107.2422 L569.6408,110.3196 " fill="#000000" style="stroke:#000000;stroke-width:1.0;"/><ellipse cx="528" cy="107.2422" fill="#000000" rx="3" ry="3" style="stroke:#000000;stroke-width:1.0;"/><path d="M333,96.2422 L346,96.2422 C355.2544,96.2422 364.9295,96.2422 374.5662,96.2422 " fill="none" style="stroke:#000000;stroke-width:1.0;stroke-dasharray:3.0,3.0;"/><path d="M374.5662,99.3268 L376.8797,96.2422 L374.5662,93.1576 L382.2777,96.2422 L374.5662,99.3268 " fill="#000000" style="stroke:#000000;stroke-width:1.0;"/><ellipse cx="333" cy="96.2422" fill="#000000" rx="3" ry="3" style="stroke:#000000;stroke-width:1.0;"/><path d="M102,85.2422 L115,85.2422 C124.2571,85.2422 133.878,85.2422 143.5196,85.2422 " fill="none" style="stroke:#000000;stroke-width:1.0;stroke-dasharray:3.0,3.0;"/><path d="M143.5196,88.3343 L145.8386,85.2422 L143.5196,82.1501 L151.2498,85.2422 L143.5196,88.3343 " fill="#000000" style="stroke:#000000;stroke-width:1.0;"/><ellipse cx="102" cy="85.2422" fill="#000000" rx="3" ry="3" style="stroke:#000000;stroke-width:1.0;"/><!--SRC=[bPHjRzem4CVV-rESw9jM6emuQGXHXLeUYafvgA13azQzS1B3l2OsSXmgDF7TvsICGf9ccl8YoTtzVtUwi-ysLaIgdx7Ww2PMkv1sKFhJPsGjIGI_400N0Sq-0Bh4VnrAaV2W9q8XuG9xwPFvvd_CabC9JMtPepsw-NnWflBQZP-At0l7QM6lsV64U8sLaBJc7l3v2CLKc7gFTjjnZ6kp4-tWfHOd6ofVQl2E-LGA4JAWyfYYl8oxaYIJ7NIrwq0jwYATCek8J-35iCM6-cp5Q931JYEBiG_zaZh6i-VviOWorOQiQNmcRBKTt-XOPjEi5Fe_o4PHMQQjsxPTgOr5HAT9v6MjBQXRZkqqd7Qp4f4sy4C4Dio6PMBJgaHCap1SaZ2X9GIkVPNYXyMifDtQ2jXkMww1hUhszUcASQQOuBcn5aCD8w2hacHt4AIGbD4uorL4t0iP4PNEwjjP71IWeyLiceD1hhwo1AIaFbBBoVR_p_LAkDu_kNd5ryduNFCTVQ3EvnyA4S3XyXrzljUoyAgZf3uwH-qUdRxtXnrsItcGxKVq51Aklap6iDMNHeyCZ0PkOhFHkhoN32Pa1mO6e-rYqxKmz0QBPqZzL-Xo-3I6M2JIfn2mM4dc9UdChz28R0dC4tq28kh2R4FvgF_urm03lcLIy8XoXKRBoNk0RTMxJC62IbqAB2T8dqMIX4ehV14mldRXZV50lCLr0rzZD2PydUWruUhpXdfwKIkvSw4_-0q0]--></g></svg>
